<mxfile host="app.diagrams.net" modified="2023-12-05T12:35:10.576Z" agent="Mozilla/5.0 (Windows NT 10.0; Win64; x64) AppleWebKit/537.36 (KHTML, like Gecko) Chrome/119.0.0.0 Safari/537.36" etag="TtuOKgKicwSYxKMKg-vi" version="22.1.5" type="github">
  <diagram name="第 1 页" id="ISHrla_YPLOknCXL0Kuk">
    <mxGraphModel dx="2022" dy="622" grid="1" gridSize="10" guides="1" tooltips="1" connect="1" arrows="1" fold="1" page="1" pageScale="1" pageWidth="827" pageHeight="1169" math="0" shadow="0">
      <root>
        <mxCell id="0" />
        <mxCell id="1" parent="0" />
        <mxCell id="JdRyD5E2xtzkE8RPLCQu-32" value="alt" style="shape=umlFrame;whiteSpace=wrap;html=1;pointerEvents=0;fillColor=#ffe6cc;strokeColor=#d79b00;" vertex="1" parent="1">
          <mxGeometry x="210" y="928" width="600" height="100" as="geometry" />
        </mxCell>
        <mxCell id="JdRyD5E2xtzkE8RPLCQu-1" value="UploadManageService" style="shape=umlLifeline;perimeter=lifelinePerimeter;whiteSpace=wrap;html=1;container=1;dropTarget=0;collapsible=0;recursiveResize=0;outlineConnect=0;portConstraint=eastwest;newEdgeStyle={&quot;curved&quot;:0,&quot;rounded&quot;:0};" vertex="1" parent="1">
          <mxGeometry x="50" y="180" width="140" height="1340" as="geometry" />
        </mxCell>
        <mxCell id="JdRyD5E2xtzkE8RPLCQu-2" value="" style="html=1;points=[[0,0,0,0,5],[0,1,0,0,-5],[1,0,0,0,5],[1,1,0,0,-5]];perimeter=orthogonalPerimeter;outlineConnect=0;targetShapes=umlLifeline;portConstraint=eastwest;newEdgeStyle={&quot;curved&quot;:0,&quot;rounded&quot;:0};" vertex="1" parent="JdRyD5E2xtzkE8RPLCQu-1">
          <mxGeometry x="65" y="70" width="10" height="1240" as="geometry" />
        </mxCell>
        <mxCell id="JdRyD5E2xtzkE8RPLCQu-3" value="ApiServer" style="shape=umlLifeline;perimeter=lifelinePerimeter;whiteSpace=wrap;html=1;container=1;dropTarget=0;collapsible=0;recursiveResize=0;outlineConnect=0;portConstraint=eastwest;newEdgeStyle={&quot;curved&quot;:0,&quot;rounded&quot;:0};" vertex="1" parent="1">
          <mxGeometry x="1125" y="180" width="115.5" height="1300" as="geometry" />
        </mxCell>
        <mxCell id="JdRyD5E2xtzkE8RPLCQu-4" value="" style="html=1;points=[[0,0,0,0,5],[0,1,0,0,-5],[1,0,0,0,5],[1,1,0,0,-5]];perimeter=orthogonalPerimeter;outlineConnect=0;targetShapes=umlLifeline;portConstraint=eastwest;newEdgeStyle={&quot;curved&quot;:0,&quot;rounded&quot;:0};" vertex="1" parent="JdRyD5E2xtzkE8RPLCQu-3">
          <mxGeometry x="52.5" y="70" width="10" height="72" as="geometry" />
        </mxCell>
        <mxCell id="JdRyD5E2xtzkE8RPLCQu-5" value="" style="html=1;points=[[0,0,0,0,5],[0,1,0,0,-5],[1,0,0,0,5],[1,1,0,0,-5]];perimeter=orthogonalPerimeter;outlineConnect=0;targetShapes=umlLifeline;portConstraint=eastwest;newEdgeStyle={&quot;curved&quot;:0,&quot;rounded&quot;:0};" vertex="1" parent="JdRyD5E2xtzkE8RPLCQu-3">
          <mxGeometry x="52.5" y="310" width="10" height="40" as="geometry" />
        </mxCell>
        <mxCell id="JdRyD5E2xtzkE8RPLCQu-31" value="" style="html=1;points=[[0,0,0,0,5],[0,1,0,0,-5],[1,0,0,0,5],[1,1,0,0,-5]];perimeter=orthogonalPerimeter;outlineConnect=0;targetShapes=umlLifeline;portConstraint=eastwest;newEdgeStyle={&quot;curved&quot;:0,&quot;rounded&quot;:0};" vertex="1" parent="JdRyD5E2xtzkE8RPLCQu-3">
          <mxGeometry x="52.5" y="878" width="10" height="80" as="geometry" />
        </mxCell>
        <mxCell id="JdRyD5E2xtzkE8RPLCQu-73" value="" style="html=1;points=[[0,0,0,0,5],[0,1,0,0,-5],[1,0,0,0,5],[1,1,0,0,-5]];perimeter=orthogonalPerimeter;outlineConnect=0;targetShapes=umlLifeline;portConstraint=eastwest;newEdgeStyle={&quot;curved&quot;:0,&quot;rounded&quot;:0};" vertex="1" parent="JdRyD5E2xtzkE8RPLCQu-3">
          <mxGeometry x="52.5" y="1190" width="10" height="80" as="geometry" />
        </mxCell>
        <mxCell id="JdRyD5E2xtzkE8RPLCQu-8" value="获取需文件上传列表&lt;br&gt;GetUpload()" style="html=1;verticalAlign=bottom;endArrow=block;curved=0;rounded=0;entryX=0;entryY=0;entryDx=0;entryDy=5;entryPerimeter=0;exitX=1;exitY=0;exitDx=0;exitDy=5;exitPerimeter=0;" edge="1" parent="1" source="JdRyD5E2xtzkE8RPLCQu-2" target="JdRyD5E2xtzkE8RPLCQu-4">
          <mxGeometry x="-0.0005" width="80" relative="1" as="geometry">
            <mxPoint x="130" y="260" as="sourcePoint" />
            <mxPoint x="210" y="260" as="targetPoint" />
            <mxPoint as="offset" />
          </mxGeometry>
        </mxCell>
        <mxCell id="JdRyD5E2xtzkE8RPLCQu-9" value="UploadFileService" style="shape=umlLifeline;perimeter=lifelinePerimeter;whiteSpace=wrap;html=1;container=1;dropTarget=0;collapsible=0;recursiveResize=0;outlineConnect=0;portConstraint=eastwest;newEdgeStyle={&quot;curved&quot;:0,&quot;rounded&quot;:0};" vertex="1" parent="1">
          <mxGeometry x="240" y="180" width="140" height="1340" as="geometry" />
        </mxCell>
        <mxCell id="JdRyD5E2xtzkE8RPLCQu-10" value="" style="html=1;points=[[0,0,0,0,5],[0,1,0,0,-5],[1,0,0,0,5],[1,1,0,0,-5]];perimeter=orthogonalPerimeter;outlineConnect=0;targetShapes=umlLifeline;portConstraint=eastwest;newEdgeStyle={&quot;curved&quot;:0,&quot;rounded&quot;:0};" vertex="1" parent="JdRyD5E2xtzkE8RPLCQu-9">
          <mxGeometry x="65" y="170" width="10" height="1150" as="geometry" />
        </mxCell>
        <mxCell id="JdRyD5E2xtzkE8RPLCQu-38" value="" style="html=1;points=[[0,0,0,0,5],[0,1,0,0,-5],[1,0,0,0,5],[1,1,0,0,-5]];perimeter=orthogonalPerimeter;outlineConnect=0;targetShapes=umlLifeline;portConstraint=eastwest;newEdgeStyle={&quot;curved&quot;:0,&quot;rounded&quot;:0};" vertex="1" parent="JdRyD5E2xtzkE8RPLCQu-9">
          <mxGeometry x="70" y="678" width="10" height="612" as="geometry" />
        </mxCell>
        <mxCell id="JdRyD5E2xtzkE8RPLCQu-39" value="文件上传&lt;br&gt;UploadFile()" style="html=1;align=left;spacingLeft=2;endArrow=block;rounded=0;edgeStyle=orthogonalEdgeStyle;curved=0;rounded=0;" edge="1" target="JdRyD5E2xtzkE8RPLCQu-38" parent="JdRyD5E2xtzkE8RPLCQu-9">
          <mxGeometry relative="1" as="geometry">
            <mxPoint x="75" y="658" as="sourcePoint" />
            <Array as="points">
              <mxPoint x="105" y="688" />
            </Array>
          </mxGeometry>
        </mxCell>
        <mxCell id="JdRyD5E2xtzkE8RPLCQu-12" value="文件上传&lt;br&gt;Upload()" style="html=1;verticalAlign=bottom;endArrow=block;curved=0;rounded=0;entryX=0;entryY=0;entryDx=0;entryDy=5;entryPerimeter=0;" edge="1" parent="1" source="JdRyD5E2xtzkE8RPLCQu-2" target="JdRyD5E2xtzkE8RPLCQu-10">
          <mxGeometry width="80" relative="1" as="geometry">
            <mxPoint x="140" y="350" as="sourcePoint" />
            <mxPoint x="220" y="350" as="targetPoint" />
          </mxGeometry>
        </mxCell>
        <mxCell id="JdRyD5E2xtzkE8RPLCQu-13" value="atl" style="shape=umlFrame;whiteSpace=wrap;html=1;pointerEvents=0;fillColor=#ffe6cc;strokeColor=#d79b00;" vertex="1" parent="1">
          <mxGeometry x="230" y="380" width="970" height="190" as="geometry" />
        </mxCell>
        <mxCell id="JdRyD5E2xtzkE8RPLCQu-14" value="【文件目录&lt;span style=&quot;background-color: rgb(255, 255, 255);&quot;&gt;】&lt;/span&gt;" style="text;html=1;align=center;verticalAlign=middle;resizable=0;points=[];autosize=1;strokeColor=none;fillColor=none;" vertex="1" parent="1">
          <mxGeometry x="210" y="408" width="100" height="30" as="geometry" />
        </mxCell>
        <mxCell id="JdRyD5E2xtzkE8RPLCQu-15" value="FolderParserService" style="shape=umlLifeline;perimeter=lifelinePerimeter;whiteSpace=wrap;html=1;container=1;dropTarget=0;collapsible=0;recursiveResize=0;outlineConnect=0;portConstraint=eastwest;newEdgeStyle={&quot;curved&quot;:0,&quot;rounded&quot;:0};" vertex="1" parent="1">
          <mxGeometry x="450" y="180" width="140" height="1330" as="geometry" />
        </mxCell>
        <mxCell id="JdRyD5E2xtzkE8RPLCQu-16" value="" style="html=1;points=[[0,0,0,0,5],[0,1,0,0,-5],[1,0,0,0,5],[1,1,0,0,-5]];perimeter=orthogonalPerimeter;outlineConnect=0;targetShapes=umlLifeline;portConstraint=eastwest;newEdgeStyle={&quot;curved&quot;:0,&quot;rounded&quot;:0};" vertex="1" parent="JdRyD5E2xtzkE8RPLCQu-15">
          <mxGeometry x="65" y="200" width="10" height="150" as="geometry" />
        </mxCell>
        <mxCell id="JdRyD5E2xtzkE8RPLCQu-19" value="" style="html=1;points=[[0,0,0,0,5],[0,1,0,0,-5],[1,0,0,0,5],[1,1,0,0,-5]];perimeter=orthogonalPerimeter;outlineConnect=0;targetShapes=umlLifeline;portConstraint=eastwest;newEdgeStyle={&quot;curved&quot;:0,&quot;rounded&quot;:0};" vertex="1" parent="JdRyD5E2xtzkE8RPLCQu-15">
          <mxGeometry x="70" y="270" width="10" height="40" as="geometry" />
        </mxCell>
        <mxCell id="JdRyD5E2xtzkE8RPLCQu-20" value="self call" style="html=1;align=left;spacingLeft=2;endArrow=block;rounded=0;edgeStyle=orthogonalEdgeStyle;curved=0;rounded=0;" edge="1" target="JdRyD5E2xtzkE8RPLCQu-19" parent="JdRyD5E2xtzkE8RPLCQu-15">
          <mxGeometry relative="1" as="geometry">
            <mxPoint x="75" y="250" as="sourcePoint" />
            <Array as="points">
              <mxPoint x="105" y="280" />
            </Array>
          </mxGeometry>
        </mxCell>
        <mxCell id="JdRyD5E2xtzkE8RPLCQu-17" value="解析文件目录&lt;br&gt;FolderParser()" style="html=1;verticalAlign=bottom;endArrow=block;curved=0;rounded=0;" edge="1" parent="1">
          <mxGeometry width="80" relative="1" as="geometry">
            <mxPoint x="315" y="414" as="sourcePoint" />
            <mxPoint x="515" y="414" as="targetPoint" />
            <mxPoint as="offset" />
          </mxGeometry>
        </mxCell>
        <mxCell id="JdRyD5E2xtzkE8RPLCQu-21" value="保存目录信息-目录信息zip包&lt;br&gt;SaveFolderInfo()" style="html=1;verticalAlign=bottom;endArrow=block;curved=0;rounded=0;" edge="1" parent="1" target="JdRyD5E2xtzkE8RPLCQu-5">
          <mxGeometry x="0.0013" width="80" relative="1" as="geometry">
            <mxPoint x="525" y="513" as="sourcePoint" />
            <mxPoint x="1177.75" y="513" as="targetPoint" />
            <mxPoint as="offset" />
          </mxGeometry>
        </mxCell>
        <mxCell id="JdRyD5E2xtzkE8RPLCQu-23" value="目录解析上传完成" style="html=1;verticalAlign=bottom;endArrow=open;dashed=1;endSize=8;curved=0;rounded=0;exitX=-0.2;exitY=0.415;exitDx=0;exitDy=0;exitPerimeter=0;" edge="1" parent="1">
          <mxGeometry relative="1" as="geometry">
            <mxPoint x="303" y="548.2" as="sourcePoint" />
            <mxPoint x="125" y="548.2" as="targetPoint" />
          </mxGeometry>
        </mxCell>
        <mxCell id="JdRyD5E2xtzkE8RPLCQu-24" value="FileHelper" style="shape=umlLifeline;perimeter=lifelinePerimeter;whiteSpace=wrap;html=1;container=1;dropTarget=0;collapsible=0;recursiveResize=0;outlineConnect=0;portConstraint=eastwest;newEdgeStyle={&quot;curved&quot;:0,&quot;rounded&quot;:0};" vertex="1" parent="1">
          <mxGeometry x="727" y="180" width="100" height="1320" as="geometry" />
        </mxCell>
        <mxCell id="JdRyD5E2xtzkE8RPLCQu-25" value="" style="html=1;points=[[0,0,0,0,5],[0,1,0,0,-5],[1,0,0,0,5],[1,1,0,0,-5]];perimeter=orthogonalPerimeter;outlineConnect=0;targetShapes=umlLifeline;portConstraint=eastwest;newEdgeStyle={&quot;curved&quot;:0,&quot;rounded&quot;:0};" vertex="1" parent="JdRyD5E2xtzkE8RPLCQu-24">
          <mxGeometry x="45" y="695" width="10" height="50" as="geometry" />
        </mxCell>
        <mxCell id="JdRyD5E2xtzkE8RPLCQu-26" value="获取文件Hash&lt;br&gt;GetFileHash" style="html=1;verticalAlign=bottom;endArrow=block;curved=0;rounded=0;entryX=0;entryY=0;entryDx=0;entryDy=5;entryPerimeter=0;" edge="1" parent="1" source="JdRyD5E2xtzkE8RPLCQu-38" target="JdRyD5E2xtzkE8RPLCQu-25">
          <mxGeometry width="80" relative="1" as="geometry">
            <mxPoint x="315" y="882" as="sourcePoint" />
            <mxPoint x="772" y="882" as="targetPoint" />
          </mxGeometry>
        </mxCell>
        <mxCell id="JdRyD5E2xtzkE8RPLCQu-27" value="return 文件上传列表" style="html=1;verticalAlign=bottom;endArrow=open;dashed=1;endSize=8;curved=0;rounded=0;exitX=0;exitY=1;exitDx=0;exitDy=-5;exitPerimeter=0;" edge="1" parent="1" source="JdRyD5E2xtzkE8RPLCQu-4" target="JdRyD5E2xtzkE8RPLCQu-2">
          <mxGeometry x="0.0014" y="-7" relative="1" as="geometry">
            <mxPoint x="840" y="310" as="sourcePoint" />
            <mxPoint x="760" y="310" as="targetPoint" />
            <mxPoint as="offset" />
          </mxGeometry>
        </mxCell>
        <mxCell id="JdRyD5E2xtzkE8RPLCQu-29" value="return 文件Hash" style="html=1;verticalAlign=bottom;endArrow=open;dashed=1;endSize=8;curved=0;rounded=0;exitX=0;exitY=1;exitDx=0;exitDy=-5;exitPerimeter=0;" edge="1" parent="1" source="JdRyD5E2xtzkE8RPLCQu-25" target="JdRyD5E2xtzkE8RPLCQu-38">
          <mxGeometry relative="1" as="geometry">
            <mxPoint x="690" y="925" as="sourcePoint" />
            <mxPoint x="315" y="920" as="targetPoint" />
          </mxGeometry>
        </mxCell>
        <mxCell id="JdRyD5E2xtzkE8RPLCQu-33" value="【shp或&lt;br style=&quot;border-color: var(--border-color);&quot;&gt;gdb文件】" style="text;html=1;align=center;verticalAlign=middle;resizable=0;points=[];autosize=1;strokeColor=none;fillColor=none;" vertex="1" parent="1">
          <mxGeometry x="210" y="968" width="80" height="40" as="geometry" />
        </mxCell>
        <mxCell id="JdRyD5E2xtzkE8RPLCQu-34" value="获取文件组合hash&lt;br&gt;GetMd5SysFile()" style="html=1;verticalAlign=bottom;endArrow=block;curved=0;rounded=0;" edge="1" parent="1">
          <mxGeometry width="80" relative="1" as="geometry">
            <mxPoint x="320" y="975" as="sourcePoint" />
            <mxPoint x="772" y="975" as="targetPoint" />
          </mxGeometry>
        </mxCell>
        <mxCell id="JdRyD5E2xtzkE8RPLCQu-35" value="" style="html=1;points=[[0,0,0,0,5],[0,1,0,0,-5],[1,0,0,0,5],[1,1,0,0,-5]];perimeter=orthogonalPerimeter;outlineConnect=0;targetShapes=umlLifeline;portConstraint=eastwest;newEdgeStyle={&quot;curved&quot;:0,&quot;rounded&quot;:0};" vertex="1" parent="1">
          <mxGeometry x="772" y="951" width="10" height="67" as="geometry" />
        </mxCell>
        <mxCell id="JdRyD5E2xtzkE8RPLCQu-36" value="return 文件组合Hash" style="html=1;verticalAlign=bottom;endArrow=open;dashed=1;endSize=8;curved=0;rounded=0;" edge="1" parent="1">
          <mxGeometry relative="1" as="geometry">
            <mxPoint x="772" y="1000.5" as="sourcePoint" />
            <mxPoint x="320" y="1000.5" as="targetPoint" />
          </mxGeometry>
        </mxCell>
        <mxCell id="JdRyD5E2xtzkE8RPLCQu-40" value="获取文件上传Url&lt;br&gt;GetUploadFileUrl()" style="html=1;verticalAlign=bottom;endArrow=block;curved=0;rounded=0;" edge="1" parent="1">
          <mxGeometry width="80" relative="1" as="geometry">
            <mxPoint x="320" y="1073" as="sourcePoint" />
            <mxPoint x="1177.5" y="1073" as="targetPoint" />
          </mxGeometry>
        </mxCell>
        <mxCell id="JdRyD5E2xtzkE8RPLCQu-41" value="return 文件上传Url" style="html=1;verticalAlign=bottom;endArrow=open;dashed=1;endSize=8;curved=0;rounded=0;exitX=0;exitY=1;exitDx=0;exitDy=-5;exitPerimeter=0;" edge="1" parent="1" source="JdRyD5E2xtzkE8RPLCQu-31" target="JdRyD5E2xtzkE8RPLCQu-38">
          <mxGeometry x="0.0006" relative="1" as="geometry">
            <mxPoint x="1150" y="1128" as="sourcePoint" />
            <mxPoint x="1070" y="1128" as="targetPoint" />
            <mxPoint as="offset" />
          </mxGeometry>
        </mxCell>
        <mxCell id="JdRyD5E2xtzkE8RPLCQu-42" value="alt" style="shape=umlFrame;whiteSpace=wrap;html=1;pointerEvents=0;fillColor=#ffe6cc;strokeColor=#d79b00;" vertex="1" parent="1">
          <mxGeometry x="210" y="1148" width="290" height="100" as="geometry" />
        </mxCell>
        <mxCell id="JdRyD5E2xtzkE8RPLCQu-43" value="文件不符&lt;br&gt;合上传条件" style="text;html=1;align=center;verticalAlign=middle;resizable=0;points=[];autosize=1;strokeColor=none;fillColor=none;" vertex="1" parent="1">
          <mxGeometry x="220" y="1188" width="80" height="40" as="geometry" />
        </mxCell>
        <mxCell id="JdRyD5E2xtzkE8RPLCQu-44" value="atl" style="shape=umlFrame;whiteSpace=wrap;html=1;pointerEvents=0;fillColor=#ffe6cc;strokeColor=#d79b00;" vertex="1" parent="1">
          <mxGeometry x="230" y="600" width="970" height="230" as="geometry" />
        </mxCell>
        <mxCell id="JdRyD5E2xtzkE8RPLCQu-45" value="【文件块&lt;span style=&quot;background-color: rgb(255, 255, 255);&quot;&gt;】&lt;/span&gt;" style="text;html=1;align=center;verticalAlign=middle;resizable=0;points=[];autosize=1;strokeColor=none;fillColor=none;" vertex="1" parent="1">
          <mxGeometry x="228" y="635" width="80" height="30" as="geometry" />
        </mxCell>
        <mxCell id="JdRyD5E2xtzkE8RPLCQu-46" value="" style="html=1;points=[[0,0,0,0,5],[0,1,0,0,-5],[1,0,0,0,5],[1,1,0,0,-5]];perimeter=orthogonalPerimeter;outlineConnect=0;targetShapes=umlLifeline;portConstraint=eastwest;newEdgeStyle={&quot;curved&quot;:0,&quot;rounded&quot;:0};" vertex="1" parent="1">
          <mxGeometry x="310" y="650" width="10" height="160" as="geometry" />
        </mxCell>
        <mxCell id="JdRyD5E2xtzkE8RPLCQu-47" value="分块上传&lt;br&gt;UploadChunk()" style="html=1;align=left;spacingLeft=2;endArrow=block;rounded=0;edgeStyle=orthogonalEdgeStyle;curved=0;rounded=0;" edge="1" target="JdRyD5E2xtzkE8RPLCQu-46" parent="1">
          <mxGeometry relative="1" as="geometry">
            <mxPoint x="315" y="630" as="sourcePoint" />
            <Array as="points">
              <mxPoint x="345" y="660" />
            </Array>
          </mxGeometry>
        </mxCell>
        <mxCell id="JdRyD5E2xtzkE8RPLCQu-48" value="上传文件块到Minio&lt;br&gt;UploadFileChunk()" style="html=1;verticalAlign=bottom;endArrow=block;curved=0;rounded=0;" edge="1" parent="1">
          <mxGeometry x="0.0008" width="80" relative="1" as="geometry">
            <mxPoint x="320" y="673" as="sourcePoint" />
            <mxPoint x="979.5" y="673" as="targetPoint" />
            <mxPoint as="offset" />
          </mxGeometry>
        </mxCell>
        <mxCell id="JdRyD5E2xtzkE8RPLCQu-49" value="MinioServer" style="shape=umlLifeline;perimeter=lifelinePerimeter;whiteSpace=wrap;html=1;container=1;dropTarget=0;collapsible=0;recursiveResize=0;outlineConnect=0;portConstraint=eastwest;newEdgeStyle={&quot;curved&quot;:0,&quot;rounded&quot;:0};" vertex="1" parent="1">
          <mxGeometry x="920" y="180" width="120" height="1300" as="geometry" />
        </mxCell>
        <mxCell id="JdRyD5E2xtzkE8RPLCQu-51" value="" style="html=1;points=[[0,0,0,0,5],[0,1,0,0,-5],[1,0,0,0,5],[1,1,0,0,-5]];perimeter=orthogonalPerimeter;outlineConnect=0;targetShapes=umlLifeline;portConstraint=eastwest;newEdgeStyle={&quot;curved&quot;:0,&quot;rounded&quot;:0};" vertex="1" parent="JdRyD5E2xtzkE8RPLCQu-49">
          <mxGeometry x="55" y="470" width="10" height="80" as="geometry" />
        </mxCell>
        <mxCell id="JdRyD5E2xtzkE8RPLCQu-65" value="" style="html=1;points=[[0,0,0,0,5],[0,1,0,0,-5],[1,0,0,0,5],[1,1,0,0,-5]];perimeter=orthogonalPerimeter;outlineConnect=0;targetShapes=umlLifeline;portConstraint=eastwest;newEdgeStyle={&quot;curved&quot;:0,&quot;rounded&quot;:0};" vertex="1" parent="JdRyD5E2xtzkE8RPLCQu-49">
          <mxGeometry x="55" y="1080" width="10" height="80" as="geometry" />
        </mxCell>
        <mxCell id="JdRyD5E2xtzkE8RPLCQu-52" value="return 文件块上传结果" style="html=1;verticalAlign=bottom;endArrow=open;dashed=1;endSize=8;curved=0;rounded=0;exitX=0;exitY=1;exitDx=0;exitDy=-5;exitPerimeter=0;" edge="1" parent="1" source="JdRyD5E2xtzkE8RPLCQu-51" target="JdRyD5E2xtzkE8RPLCQu-46">
          <mxGeometry relative="1" as="geometry">
            <mxPoint x="750" y="730" as="sourcePoint" />
            <mxPoint x="670" y="730" as="targetPoint" />
          </mxGeometry>
        </mxCell>
        <mxCell id="JdRyD5E2xtzkE8RPLCQu-53" value="" style="html=1;points=[[0,0,0,0,5],[0,1,0,0,-5],[1,0,0,0,5],[1,1,0,0,-5]];perimeter=orthogonalPerimeter;outlineConnect=0;targetShapes=umlLifeline;portConstraint=eastwest;newEdgeStyle={&quot;curved&quot;:0,&quot;rounded&quot;:0};" vertex="1" parent="1">
          <mxGeometry x="1178" y="729" width="10" height="80" as="geometry" />
        </mxCell>
        <mxCell id="JdRyD5E2xtzkE8RPLCQu-54" value="更新文件上传状态&lt;br&gt;UpdateFileStatus()" style="html=1;verticalAlign=bottom;endArrow=block;curved=0;rounded=0;" edge="1" parent="1">
          <mxGeometry width="80" relative="1" as="geometry">
            <mxPoint x="320" y="752" as="sourcePoint" />
            <mxPoint x="1178" y="752" as="targetPoint" />
            <mxPoint as="offset" />
          </mxGeometry>
        </mxCell>
        <mxCell id="JdRyD5E2xtzkE8RPLCQu-56" value="return 文件状态更新结果" style="html=1;verticalAlign=bottom;endArrow=open;dashed=1;endSize=8;curved=0;rounded=0;entryX=1;entryY=0.875;entryDx=0;entryDy=0;entryPerimeter=0;" edge="1" parent="1">
          <mxGeometry relative="1" as="geometry">
            <mxPoint x="1178" y="786" as="sourcePoint" />
            <mxPoint x="320" y="786" as="targetPoint" />
          </mxGeometry>
        </mxCell>
        <mxCell id="JdRyD5E2xtzkE8RPLCQu-57" value="文件块上传完成" style="html=1;verticalAlign=bottom;endArrow=open;dashed=1;endSize=8;curved=0;rounded=0;" edge="1" parent="1">
          <mxGeometry relative="1" as="geometry">
            <mxPoint x="305" y="819" as="sourcePoint" />
            <mxPoint x="125" y="819" as="targetPoint" />
          </mxGeometry>
        </mxCell>
        <mxCell id="JdRyD5E2xtzkE8RPLCQu-60" value="1.文件上传中&lt;br&gt;2.文件涉密&lt;br&gt;3.文件切片上传&lt;br&gt;打印日志" style="text;html=1;align=left;verticalAlign=middle;resizable=0;points=[];autosize=1;strokeColor=#b85450;fillColor=#f8cecc;" vertex="1" parent="1">
          <mxGeometry x="330" y="1169" width="110" height="70" as="geometry" />
        </mxCell>
        <mxCell id="JdRyD5E2xtzkE8RPLCQu-64" value="文件上传结束" style="html=1;verticalAlign=bottom;endArrow=open;dashed=1;endSize=8;curved=0;rounded=0;" edge="1" parent="1">
          <mxGeometry relative="1" as="geometry">
            <mxPoint x="310" y="1239" as="sourcePoint" />
            <mxPoint x="125" y="1239" as="targetPoint" />
          </mxGeometry>
        </mxCell>
        <mxCell id="JdRyD5E2xtzkE8RPLCQu-66" value="上传文件到Minio&lt;br style=&quot;border-color: var(--border-color);&quot;&gt;UploadFile()" style="html=1;verticalAlign=bottom;endArrow=block;curved=0;rounded=0;" edge="1" parent="1">
          <mxGeometry x="0.0015" width="80" relative="1" as="geometry">
            <mxPoint x="320" y="1274" as="sourcePoint" />
            <mxPoint x="975" y="1274" as="targetPoint" />
            <mxPoint as="offset" />
          </mxGeometry>
        </mxCell>
        <mxCell id="JdRyD5E2xtzkE8RPLCQu-67" value="return 文件上传结果" style="html=1;verticalAlign=bottom;endArrow=open;dashed=1;endSize=8;curved=0;rounded=0;" edge="1" parent="1" source="JdRyD5E2xtzkE8RPLCQu-65" target="JdRyD5E2xtzkE8RPLCQu-38">
          <mxGeometry relative="1" as="geometry">
            <mxPoint x="830" y="1320" as="sourcePoint" />
            <mxPoint x="750" y="1320" as="targetPoint" />
          </mxGeometry>
        </mxCell>
        <mxCell id="JdRyD5E2xtzkE8RPLCQu-68" value="alt" style="shape=umlFrame;whiteSpace=wrap;html=1;pointerEvents=0;fillColor=#ffe6cc;strokeColor=#d79b00;" vertex="1" parent="1">
          <mxGeometry x="210" y="1320" width="290" height="70" as="geometry" />
        </mxCell>
        <mxCell id="JdRyD5E2xtzkE8RPLCQu-69" value="etag校验" style="text;html=1;align=center;verticalAlign=middle;resizable=0;points=[];autosize=1;strokeColor=none;fillColor=none;" vertex="1" parent="1">
          <mxGeometry x="225" y="1355" width="70" height="30" as="geometry" />
        </mxCell>
        <mxCell id="JdRyD5E2xtzkE8RPLCQu-70" value="" style="html=1;points=[[0,0,0,0,5],[0,1,0,0,-5],[1,0,0,0,5],[1,1,0,0,-5]];perimeter=orthogonalPerimeter;outlineConnect=0;targetShapes=umlLifeline;portConstraint=eastwest;newEdgeStyle={&quot;curved&quot;:0,&quot;rounded&quot;:0};" vertex="1" parent="1">
          <mxGeometry x="315" y="1345" width="10" height="40" as="geometry" />
        </mxCell>
        <mxCell id="JdRyD5E2xtzkE8RPLCQu-71" value="CheckETag" style="html=1;align=left;spacingLeft=2;endArrow=block;rounded=0;edgeStyle=orthogonalEdgeStyle;curved=0;rounded=0;" edge="1" target="JdRyD5E2xtzkE8RPLCQu-70" parent="1">
          <mxGeometry relative="1" as="geometry">
            <mxPoint x="320" y="1325" as="sourcePoint" />
            <Array as="points">
              <mxPoint x="350" y="1355" />
            </Array>
          </mxGeometry>
        </mxCell>
        <mxCell id="JdRyD5E2xtzkE8RPLCQu-72" value="更新文件上传状态&lt;br style=&quot;border-color: var(--border-color);&quot;&gt;UpdateFileStatus()" style="html=1;verticalAlign=bottom;endArrow=block;curved=0;rounded=0;" edge="1" parent="1">
          <mxGeometry x="0.0006" width="80" relative="1" as="geometry">
            <mxPoint x="320" y="1409" as="sourcePoint" />
            <mxPoint x="1177.5" y="1409" as="targetPoint" />
            <mxPoint as="offset" />
          </mxGeometry>
        </mxCell>
        <mxCell id="JdRyD5E2xtzkE8RPLCQu-75" value="return 文件状态更新结果" style="html=1;verticalAlign=bottom;endArrow=open;dashed=1;endSize=8;curved=0;rounded=0;" edge="1" parent="1">
          <mxGeometry x="0.0006" relative="1" as="geometry">
            <mxPoint x="1177.5" y="1436" as="sourcePoint" />
            <mxPoint x="320" y="1436" as="targetPoint" />
            <mxPoint as="offset" />
          </mxGeometry>
        </mxCell>
        <mxCell id="JdRyD5E2xtzkE8RPLCQu-76" value="文件上传结束" style="html=1;verticalAlign=bottom;endArrow=open;dashed=1;endSize=8;curved=0;rounded=0;exitX=1;exitY=1;exitDx=0;exitDy=-5;exitPerimeter=0;" edge="1" parent="1" source="JdRyD5E2xtzkE8RPLCQu-38" target="JdRyD5E2xtzkE8RPLCQu-2">
          <mxGeometry relative="1" as="geometry">
            <mxPoint x="300" y="1450" as="sourcePoint" />
            <mxPoint x="220" y="1450" as="targetPoint" />
          </mxGeometry>
        </mxCell>
        <mxCell id="JdRyD5E2xtzkE8RPLCQu-79" value="文件块走服务端？&lt;br style=&quot;border-color: var(--border-color);&quot;&gt;&lt;span style=&quot;&quot;&gt;插队？&lt;/span&gt;" style="text;html=1;align=center;verticalAlign=middle;resizable=0;points=[];autosize=1;strokeColor=#b85450;fillColor=#f8cecc;" vertex="1" parent="1">
          <mxGeometry x="810" y="1028" width="120" height="40" as="geometry" />
        </mxCell>
        <mxCell id="JdRyD5E2xtzkE8RPLCQu-80" value="文件目录信息存放到&lt;br&gt;txt文件中，一个txt&lt;br&gt;100条数据" style="text;html=1;align=center;verticalAlign=middle;resizable=0;points=[];autosize=1;strokeColor=#b85450;fillColor=#f8cecc;" vertex="1" parent="1">
          <mxGeometry x="930" y="445" width="130" height="60" as="geometry" />
        </mxCell>
        <mxCell id="JdRyD5E2xtzkE8RPLCQu-81" value="UploadFileController" style="shape=umlLifeline;perimeter=lifelinePerimeter;whiteSpace=wrap;html=1;container=1;dropTarget=0;collapsible=0;recursiveResize=0;outlineConnect=0;portConstraint=eastwest;newEdgeStyle={&quot;curved&quot;:0,&quot;rounded&quot;:0};" vertex="1" parent="1">
          <mxGeometry x="130" y="1860" width="140" height="1340" as="geometry" />
        </mxCell>
        <mxCell id="JdRyD5E2xtzkE8RPLCQu-82" value="" style="html=1;points=[[0,0,0,0,5],[0,1,0,0,-5],[1,0,0,0,5],[1,1,0,0,-5]];perimeter=orthogonalPerimeter;outlineConnect=0;targetShapes=umlLifeline;portConstraint=eastwest;newEdgeStyle={&quot;curved&quot;:0,&quot;rounded&quot;:0};" vertex="1" parent="JdRyD5E2xtzkE8RPLCQu-81">
          <mxGeometry x="65" y="60" width="10" height="420" as="geometry" />
        </mxCell>
        <mxCell id="JdRyD5E2xtzkE8RPLCQu-122" value="" style="html=1;points=[[0,0,0,0,5],[0,1,0,0,-5],[1,0,0,0,5],[1,1,0,0,-5]];perimeter=orthogonalPerimeter;outlineConnect=0;targetShapes=umlLifeline;portConstraint=eastwest;newEdgeStyle={&quot;curved&quot;:0,&quot;rounded&quot;:0};" vertex="1" parent="JdRyD5E2xtzkE8RPLCQu-81">
          <mxGeometry x="65" y="510" width="10" height="90" as="geometry" />
        </mxCell>
        <mxCell id="JdRyD5E2xtzkE8RPLCQu-83" value="Text" style="text;html=1;strokeColor=none;fillColor=none;align=center;verticalAlign=middle;whiteSpace=wrap;rounded=0;" vertex="1" parent="1">
          <mxGeometry x="630" y="460" width="60" height="30" as="geometry" />
        </mxCell>
        <mxCell id="JdRyD5E2xtzkE8RPLCQu-84" value="&lt;h1&gt;客户端&lt;/h1&gt;&lt;p&gt;&lt;br&gt;&lt;/p&gt;" style="text;html=1;strokeColor=none;fillColor=none;spacing=5;spacingTop=-20;whiteSpace=wrap;overflow=hidden;rounded=0;" vertex="1" parent="1">
          <mxGeometry x="582" y="120" width="190" height="40" as="geometry" />
        </mxCell>
        <mxCell id="JdRyD5E2xtzkE8RPLCQu-85" value="&lt;h1&gt;服务端&lt;/h1&gt;&lt;p&gt;&lt;br&gt;&lt;/p&gt;" style="text;html=1;strokeColor=none;fillColor=none;spacing=5;spacingTop=-20;whiteSpace=wrap;overflow=hidden;rounded=0;" vertex="1" parent="1">
          <mxGeometry x="530" y="1770" width="190" height="40" as="geometry" />
        </mxCell>
        <mxCell id="JdRyD5E2xtzkE8RPLCQu-87" value="获取需文件上传列表&lt;br style=&quot;border-color: var(--border-color);&quot;&gt;GetUpload()" style="html=1;verticalAlign=bottom;endArrow=block;curved=0;rounded=0;" edge="1" parent="1" source="JdRyD5E2xtzkE8RPLCQu-90">
          <mxGeometry width="80" relative="1" as="geometry">
            <mxPoint x="70" y="1940" as="sourcePoint" />
            <mxPoint x="190" y="1940" as="targetPoint" />
            <mxPoint as="offset" />
          </mxGeometry>
        </mxCell>
        <mxCell id="JdRyD5E2xtzkE8RPLCQu-90" value="" style="shape=umlLifeline;perimeter=lifelinePerimeter;whiteSpace=wrap;html=1;container=1;dropTarget=0;collapsible=0;recursiveResize=0;outlineConnect=0;portConstraint=eastwest;newEdgeStyle={&quot;curved&quot;:0,&quot;rounded&quot;:0};participant=umlActor;" vertex="1" parent="1">
          <mxGeometry x="10" y="1860" width="20" height="740" as="geometry" />
        </mxCell>
        <mxCell id="JdRyD5E2xtzkE8RPLCQu-91" value="UploadFileService" style="shape=umlLifeline;perimeter=lifelinePerimeter;whiteSpace=wrap;html=1;container=1;dropTarget=0;collapsible=0;recursiveResize=0;outlineConnect=0;portConstraint=eastwest;newEdgeStyle={&quot;curved&quot;:0,&quot;rounded&quot;:0};" vertex="1" parent="1">
          <mxGeometry x="380" y="1860" width="140" height="1340" as="geometry" />
        </mxCell>
        <mxCell id="JdRyD5E2xtzkE8RPLCQu-92" value="" style="html=1;points=[[0,0,0,0,5],[0,1,0,0,-5],[1,0,0,0,5],[1,1,0,0,-5]];perimeter=orthogonalPerimeter;outlineConnect=0;targetShapes=umlLifeline;portConstraint=eastwest;newEdgeStyle={&quot;curved&quot;:0,&quot;rounded&quot;:0};" vertex="1" parent="JdRyD5E2xtzkE8RPLCQu-91">
          <mxGeometry x="65" y="60" width="10" height="420" as="geometry" />
        </mxCell>
        <mxCell id="JdRyD5E2xtzkE8RPLCQu-124" value="" style="html=1;points=[[0,0,0,0,5],[0,1,0,0,-5],[1,0,0,0,5],[1,1,0,0,-5]];perimeter=orthogonalPerimeter;outlineConnect=0;targetShapes=umlLifeline;portConstraint=eastwest;newEdgeStyle={&quot;curved&quot;:0,&quot;rounded&quot;:0};" vertex="1" parent="JdRyD5E2xtzkE8RPLCQu-91">
          <mxGeometry x="65" y="510" width="10" height="90" as="geometry" />
        </mxCell>
        <mxCell id="JdRyD5E2xtzkE8RPLCQu-93" value="根据机器码获取备份文件列表&lt;br&gt;GetFileList()" style="html=1;verticalAlign=bottom;endArrow=block;curved=0;rounded=0;" edge="1" parent="1">
          <mxGeometry width="80" relative="1" as="geometry">
            <mxPoint x="205" y="1931" as="sourcePoint" />
            <mxPoint x="445" y="1931" as="targetPoint" />
          </mxGeometry>
        </mxCell>
        <mxCell id="JdRyD5E2xtzkE8RPLCQu-97" value="设置客户端是激活状态&lt;br&gt;setActivedKey()" style="html=1;verticalAlign=bottom;endArrow=block;curved=0;rounded=0;" edge="1" parent="1" target="JdRyD5E2xtzkE8RPLCQu-104">
          <mxGeometry width="80" relative="1" as="geometry">
            <mxPoint x="455" y="1947" as="sourcePoint" />
            <mxPoint x="949.5" y="1947" as="targetPoint" />
          </mxGeometry>
        </mxCell>
        <mxCell id="JdRyD5E2xtzkE8RPLCQu-98" value="alt" style="shape=umlFrame;whiteSpace=wrap;html=1;pointerEvents=0;fillColor=#ffe6cc;strokeColor=#d79b00;" vertex="1" parent="1">
          <mxGeometry x="377" y="2010" width="350" height="90" as="geometry" />
        </mxCell>
        <mxCell id="JdRyD5E2xtzkE8RPLCQu-99" value="只有客户端激活，且有未&lt;br&gt;备份完成的备份任务，且位于前20&lt;br&gt;的客户端的文件才执行备份" style="text;html=1;align=center;verticalAlign=middle;resizable=0;points=[];autosize=1;strokeColor=#b85450;fillColor=#f8cecc;" vertex="1" parent="1">
          <mxGeometry x="470" y="2025" width="200" height="60" as="geometry" />
        </mxCell>
        <mxCell id="JdRyD5E2xtzkE8RPLCQu-100" value="return&amp;nbsp;" style="html=1;verticalAlign=bottom;endArrow=open;dashed=1;endSize=8;curved=0;rounded=0;" edge="1" parent="1">
          <mxGeometry relative="1" as="geometry">
            <mxPoint x="445" y="2087" as="sourcePoint" />
            <mxPoint x="199.5" y="2087" as="targetPoint" />
          </mxGeometry>
        </mxCell>
        <mxCell id="JdRyD5E2xtzkE8RPLCQu-101" value="判断当前客户端key是否可以获取到备份文件&lt;br&gt;keyExistsActived()" style="html=1;verticalAlign=bottom;endArrow=block;curved=0;rounded=0;entryX=0;entryY=0;entryDx=0;entryDy=5;entryPerimeter=0;" edge="1" parent="1" source="JdRyD5E2xtzkE8RPLCQu-92" target="JdRyD5E2xtzkE8RPLCQu-106">
          <mxGeometry x="0.0015" width="80" relative="1" as="geometry">
            <mxPoint x="465" y="1990" as="sourcePoint" />
            <mxPoint x="820" y="2000" as="targetPoint" />
            <mxPoint as="offset" />
          </mxGeometry>
        </mxCell>
        <mxCell id="JdRyD5E2xtzkE8RPLCQu-103" value="RedisKeyUtil" style="shape=umlLifeline;perimeter=lifelinePerimeter;whiteSpace=wrap;html=1;container=1;dropTarget=0;collapsible=0;recursiveResize=0;outlineConnect=0;portConstraint=eastwest;newEdgeStyle={&quot;curved&quot;:0,&quot;rounded&quot;:0};" vertex="1" parent="1">
          <mxGeometry x="1430" y="1850" width="140" height="1340" as="geometry" />
        </mxCell>
        <mxCell id="JdRyD5E2xtzkE8RPLCQu-104" value="" style="html=1;points=[[0,0,0,0,5],[0,1,0,0,-5],[1,0,0,0,5],[1,1,0,0,-5]];perimeter=orthogonalPerimeter;outlineConnect=0;targetShapes=umlLifeline;portConstraint=eastwest;newEdgeStyle={&quot;curved&quot;:0,&quot;rounded&quot;:0};" vertex="1" parent="JdRyD5E2xtzkE8RPLCQu-103">
          <mxGeometry x="66" y="63" width="10" height="48" as="geometry" />
        </mxCell>
        <mxCell id="JdRyD5E2xtzkE8RPLCQu-106" value="" style="html=1;points=[[0,0,0,0,5],[0,1,0,0,-5],[1,0,0,0,5],[1,1,0,0,-5]];perimeter=orthogonalPerimeter;outlineConnect=0;targetShapes=umlLifeline;portConstraint=eastwest;newEdgeStyle={&quot;curved&quot;:0,&quot;rounded&quot;:0};" vertex="1" parent="JdRyD5E2xtzkE8RPLCQu-103">
          <mxGeometry x="66" y="125" width="10" height="80" as="geometry" />
        </mxCell>
        <mxCell id="JdRyD5E2xtzkE8RPLCQu-107" value="UploadFileInterface" style="shape=umlLifeline;perimeter=lifelinePerimeter;whiteSpace=wrap;html=1;container=1;dropTarget=0;collapsible=0;recursiveResize=0;outlineConnect=0;portConstraint=eastwest;newEdgeStyle={&quot;curved&quot;:0,&quot;rounded&quot;:0};" vertex="1" parent="1">
          <mxGeometry x="760" y="1860" width="140" height="1340" as="geometry" />
        </mxCell>
        <mxCell id="JdRyD5E2xtzkE8RPLCQu-108" value="" style="html=1;points=[[0,0,0,0,5],[0,1,0,0,-5],[1,0,0,0,5],[1,1,0,0,-5]];perimeter=orthogonalPerimeter;outlineConnect=0;targetShapes=umlLifeline;portConstraint=eastwest;newEdgeStyle={&quot;curved&quot;:0,&quot;rounded&quot;:0};" vertex="1" parent="JdRyD5E2xtzkE8RPLCQu-107">
          <mxGeometry x="65" y="260" width="10" height="230" as="geometry" />
        </mxCell>
        <mxCell id="JdRyD5E2xtzkE8RPLCQu-127" value="" style="html=1;points=[[0,0,0,0,5],[0,1,0,0,-5],[1,0,0,0,5],[1,1,0,0,-5]];perimeter=orthogonalPerimeter;outlineConnect=0;targetShapes=umlLifeline;portConstraint=eastwest;newEdgeStyle={&quot;curved&quot;:0,&quot;rounded&quot;:0};" vertex="1" parent="JdRyD5E2xtzkE8RPLCQu-107">
          <mxGeometry x="65" y="520" width="10" height="80" as="geometry" />
        </mxCell>
        <mxCell id="JdRyD5E2xtzkE8RPLCQu-109" value="获取文件列表&lt;br&gt;GetFileList()" style="html=1;verticalAlign=bottom;endArrow=block;curved=0;rounded=0;" edge="1" parent="1" target="JdRyD5E2xtzkE8RPLCQu-108">
          <mxGeometry x="0.0027" width="80" relative="1" as="geometry">
            <mxPoint x="460" y="2140" as="sourcePoint" />
            <mxPoint x="540" y="2140" as="targetPoint" />
            <mxPoint as="offset" />
          </mxGeometry>
        </mxCell>
        <mxCell id="JdRyD5E2xtzkE8RPLCQu-110" value="return 上传文件列表" style="html=1;verticalAlign=bottom;endArrow=open;dashed=1;endSize=8;curved=0;rounded=0;" edge="1" parent="1">
          <mxGeometry x="-0.0009" relative="1" as="geometry">
            <mxPoint x="822.0000000000002" y="2290" as="sourcePoint" />
            <mxPoint x="455" y="2290" as="targetPoint" />
            <mxPoint as="offset" />
          </mxGeometry>
        </mxCell>
        <mxCell id="JdRyD5E2xtzkE8RPLCQu-111" value="return 上传文件列表" style="html=1;verticalAlign=bottom;endArrow=open;dashed=1;endSize=8;curved=0;rounded=0;" edge="1" parent="1">
          <mxGeometry relative="1" as="geometry">
            <mxPoint x="445" y="2241" as="sourcePoint" />
            <mxPoint x="205" y="2241" as="targetPoint" />
            <mxPoint as="offset" />
          </mxGeometry>
        </mxCell>
        <mxCell id="JdRyD5E2xtzkE8RPLCQu-112" value="UploadFileBackUpServerr" style="shape=umlLifeline;perimeter=lifelinePerimeter;whiteSpace=wrap;html=1;container=1;dropTarget=0;collapsible=0;recursiveResize=0;outlineConnect=0;portConstraint=eastwest;newEdgeStyle={&quot;curved&quot;:0,&quot;rounded&quot;:0};" vertex="1" parent="1">
          <mxGeometry x="1010" y="1850" width="140" height="1340" as="geometry" />
        </mxCell>
        <mxCell id="JdRyD5E2xtzkE8RPLCQu-113" value="" style="html=1;points=[[0,0,0,0,5],[0,1,0,0,-5],[1,0,0,0,5],[1,1,0,0,-5]];perimeter=orthogonalPerimeter;outlineConnect=0;targetShapes=umlLifeline;portConstraint=eastwest;newEdgeStyle={&quot;curved&quot;:0,&quot;rounded&quot;:0};" vertex="1" parent="JdRyD5E2xtzkE8RPLCQu-112">
          <mxGeometry x="65" y="294" width="10" height="50" as="geometry" />
        </mxCell>
        <mxCell id="JdRyD5E2xtzkE8RPLCQu-114" value="UploadFileArchiveServerr" style="shape=umlLifeline;perimeter=lifelinePerimeter;whiteSpace=wrap;html=1;container=1;dropTarget=0;collapsible=0;recursiveResize=0;outlineConnect=0;portConstraint=eastwest;newEdgeStyle={&quot;curved&quot;:0,&quot;rounded&quot;:0};" vertex="1" parent="1">
          <mxGeometry x="1230" y="1850" width="140" height="1340" as="geometry" />
        </mxCell>
        <mxCell id="JdRyD5E2xtzkE8RPLCQu-115" value="" style="html=1;points=[[0,0,0,0,5],[0,1,0,0,-5],[1,0,0,0,5],[1,1,0,0,-5]];perimeter=orthogonalPerimeter;outlineConnect=0;targetShapes=umlLifeline;portConstraint=eastwest;newEdgeStyle={&quot;curved&quot;:0,&quot;rounded&quot;:0};" vertex="1" parent="JdRyD5E2xtzkE8RPLCQu-114">
          <mxGeometry x="65" y="373" width="10" height="50" as="geometry" />
        </mxCell>
        <mxCell id="JdRyD5E2xtzkE8RPLCQu-116" value="获取文件列表-备份文件&lt;br style=&quot;border-color: var(--border-color);&quot;&gt;GetFileList()" style="html=1;verticalAlign=bottom;endArrow=block;curved=0;rounded=0;entryX=0;entryY=0;entryDx=0;entryDy=5;entryPerimeter=0;" edge="1" parent="1" source="JdRyD5E2xtzkE8RPLCQu-108" target="JdRyD5E2xtzkE8RPLCQu-113">
          <mxGeometry x="0.0014" width="80" relative="1" as="geometry">
            <mxPoint x="840" y="2170" as="sourcePoint" />
            <mxPoint x="920" y="2170" as="targetPoint" />
            <mxPoint as="offset" />
          </mxGeometry>
        </mxCell>
        <mxCell id="JdRyD5E2xtzkE8RPLCQu-118" value="return&amp;nbsp; 待上传 文件列表" style="html=1;verticalAlign=bottom;endArrow=open;dashed=1;endSize=8;curved=0;rounded=0;exitX=0;exitY=1;exitDx=0;exitDy=-5;exitPerimeter=0;" edge="1" parent="1" source="JdRyD5E2xtzkE8RPLCQu-113" target="JdRyD5E2xtzkE8RPLCQu-108">
          <mxGeometry relative="1" as="geometry">
            <mxPoint x="990" y="2190" as="sourcePoint" />
            <mxPoint x="910" y="2190" as="targetPoint" />
          </mxGeometry>
        </mxCell>
        <mxCell id="JdRyD5E2xtzkE8RPLCQu-119" value="获取文件列表&lt;br style=&quot;border-color: var(--border-color);&quot;&gt;GetFileList()" style="html=1;verticalAlign=bottom;endArrow=block;curved=0;rounded=0;" edge="1" parent="1">
          <mxGeometry x="-0.0009" width="80" relative="1" as="geometry">
            <mxPoint x="455" y="2220" as="sourcePoint" />
            <mxPoint x="822.0000000000002" y="2220" as="targetPoint" />
            <mxPoint as="offset" />
          </mxGeometry>
        </mxCell>
        <mxCell id="JdRyD5E2xtzkE8RPLCQu-120" value="获取文件列表-归档文件&lt;br style=&quot;border-color: var(--border-color);&quot;&gt;GetFileList()" style="html=1;verticalAlign=bottom;endArrow=block;curved=0;rounded=0;entryX=0;entryY=0;entryDx=0;entryDy=5;entryPerimeter=0;" edge="1" parent="1" target="JdRyD5E2xtzkE8RPLCQu-115">
          <mxGeometry width="80" relative="1" as="geometry">
            <mxPoint x="830" y="2230" as="sourcePoint" />
            <mxPoint x="910" y="2230" as="targetPoint" />
            <mxPoint as="offset" />
          </mxGeometry>
        </mxCell>
        <mxCell id="JdRyD5E2xtzkE8RPLCQu-121" value="return&amp;nbsp; 待上传 文件列表" style="html=1;verticalAlign=bottom;endArrow=open;dashed=1;endSize=8;curved=0;rounded=0;exitX=0;exitY=1;exitDx=0;exitDy=-5;exitPerimeter=0;" edge="1" parent="1" source="JdRyD5E2xtzkE8RPLCQu-115" target="JdRyD5E2xtzkE8RPLCQu-108">
          <mxGeometry x="0.0007" relative="1" as="geometry">
            <mxPoint x="1200" y="2270" as="sourcePoint" />
            <mxPoint x="1120" y="2270" as="targetPoint" />
            <mxPoint as="offset" />
          </mxGeometry>
        </mxCell>
        <mxCell id="JdRyD5E2xtzkE8RPLCQu-123" value="保存目录信息-目录信息zip包&lt;br style=&quot;border-color: var(--border-color);&quot;&gt;SaveFolderInfo()" style="html=1;verticalAlign=bottom;endArrow=block;curved=0;rounded=0;entryX=0;entryY=0;entryDx=0;entryDy=5;entryPerimeter=0;" edge="1" parent="1" source="JdRyD5E2xtzkE8RPLCQu-90" target="JdRyD5E2xtzkE8RPLCQu-122">
          <mxGeometry x="-0.002" width="80" relative="1" as="geometry">
            <mxPoint x="60" y="2400" as="sourcePoint" />
            <mxPoint x="140" y="2400" as="targetPoint" />
            <mxPoint as="offset" />
          </mxGeometry>
        </mxCell>
        <mxCell id="JdRyD5E2xtzkE8RPLCQu-125" value="保存目录信息-目录信息zip包&lt;br style=&quot;border-color: var(--border-color);&quot;&gt;SaveFolderInfo()" style="html=1;verticalAlign=bottom;endArrow=block;curved=0;rounded=0;" edge="1" parent="1">
          <mxGeometry width="80" relative="1" as="geometry">
            <mxPoint x="205" y="2384" as="sourcePoint" />
            <mxPoint x="445" y="2384" as="targetPoint" />
            <mxPoint as="offset" />
          </mxGeometry>
        </mxCell>
        <mxCell id="JdRyD5E2xtzkE8RPLCQu-128" value="UploadFileMapper" style="shape=umlLifeline;perimeter=lifelinePerimeter;whiteSpace=wrap;html=1;container=1;dropTarget=0;collapsible=0;recursiveResize=0;outlineConnect=0;portConstraint=eastwest;newEdgeStyle={&quot;curved&quot;:0,&quot;rounded&quot;:0};" vertex="1" parent="1">
          <mxGeometry x="570" y="1860" width="140" height="1340" as="geometry" />
        </mxCell>
        <mxCell id="JdRyD5E2xtzkE8RPLCQu-130" value="" style="html=1;points=[[0,0,0,0,5],[0,1,0,0,-5],[1,0,0,0,5],[1,1,0,0,-5]];perimeter=orthogonalPerimeter;outlineConnect=0;targetShapes=umlLifeline;portConstraint=eastwest;newEdgeStyle={&quot;curved&quot;:0,&quot;rounded&quot;:0};" vertex="1" parent="JdRyD5E2xtzkE8RPLCQu-128">
          <mxGeometry x="65" y="529" width="10" height="80" as="geometry" />
        </mxCell>
        <mxCell id="JdRyD5E2xtzkE8RPLCQu-131" value="保存解压信息到数据库&lt;br&gt;InsertFolderInfo()" style="html=1;verticalAlign=bottom;endArrow=block;curved=0;rounded=0;" edge="1" parent="1">
          <mxGeometry width="80" relative="1" as="geometry">
            <mxPoint x="460" y="2399" as="sourcePoint" />
            <mxPoint x="635" y="2399" as="targetPoint" />
            <mxPoint as="offset" />
          </mxGeometry>
        </mxCell>
        <mxCell id="JdRyD5E2xtzkE8RPLCQu-132" value="return 保存结果" style="html=1;verticalAlign=bottom;endArrow=open;dashed=1;endSize=8;curved=0;rounded=0;entryX=1;entryY=1;entryDx=0;entryDy=-5;entryPerimeter=0;" edge="1" parent="1">
          <mxGeometry relative="1" as="geometry">
            <mxPoint x="635" y="2442" as="sourcePoint" />
            <mxPoint x="455" y="2442" as="targetPoint" />
            <mxPoint as="offset" />
          </mxGeometry>
        </mxCell>
        <mxCell id="JdRyD5E2xtzkE8RPLCQu-133" value="return 文件信息保存" style="html=1;verticalAlign=bottom;endArrow=open;dashed=1;endSize=8;curved=0;rounded=0;exitX=0;exitY=1;exitDx=0;exitDy=-5;exitPerimeter=0;entryX=1;entryY=1;entryDx=0;entryDy=-5;entryPerimeter=0;" edge="1" parent="1" source="JdRyD5E2xtzkE8RPLCQu-124" target="JdRyD5E2xtzkE8RPLCQu-122">
          <mxGeometry relative="1" as="geometry">
            <mxPoint x="425" y="2450" as="sourcePoint" />
            <mxPoint x="345" y="2450" as="targetPoint" />
          </mxGeometry>
        </mxCell>
        <mxCell id="JdRyD5E2xtzkE8RPLCQu-136" value="ScheduledService" style="shape=umlLifeline;perimeter=lifelinePerimeter;whiteSpace=wrap;html=1;container=1;dropTarget=0;collapsible=0;recursiveResize=0;outlineConnect=0;portConstraint=eastwest;newEdgeStyle={&quot;curved&quot;:0,&quot;rounded&quot;:0};" vertex="1" parent="1">
          <mxGeometry x="-150" y="1860" width="100" height="1000" as="geometry" />
        </mxCell>
      </root>
    </mxGraphModel>
  </diagram>
</mxfile>
